<?xml version="1.0" encoding="UTF-8"?>
<svg version="1.1" xmlns="http://www.w3.org/2000/svg" width="160" height="170">
<path d="M0 0 C52.8 0 105.6 0 160 0 C160 56.1 160 112.2 160 170 C107.2 170 54.4 170 0 170 C0 113.9 0 57.8 0 0 Z " fill="#F9FBFC" transform="translate(0,0)"/>
<path d="M0 0 C2.69140625 1.56640625 2.69140625 1.56640625 5.5625 3.5625 C8.76082797 5.78553537 11.92954366 7.95787754 15.2734375 9.95703125 C23.15313914 14.73349237 26.89693511 19.15472997 29.59765625 27.9453125 C31.14584688 35.8516064 30.64903538 44.75966714 27 52 C21.29773722 59.9159461 14.15140986 66.70451849 4.33203125 68.71875 C-6.6488052 70.04307198 -14.78659908 69.29375159 -23.6875 62.6875 C-31.58687132 56.15898178 -36.07312274 49.25585734 -37.38671875 38.97265625 C-37.71684118 30.12765187 -35.6061063 22.46037591 -29.75073242 15.67285156 C-25.78718837 11.88562469 -21.08324538 9.0350293 -16.5 6.0625 C-15.46746094 5.36576172 -14.43492188 4.66902344 -13.37109375 3.95117188 C-11.87255859 2.97180664 -11.87255859 2.97180664 -10.34375 1.97265625 C-9.43818359 1.37718994 -8.53261719 0.78172363 -7.59960938 0.16821289 C-4.49936836 -1.22497393 -3.18035113 -1.06776772 0 0 Z " fill="#0954D0" transform="translate(84,50)"/>
<path d="M0 0 C1.00808224 3.49708993 0.97606333 6.60874904 0.83203125 10.24438477 C0.5426934 18.64121026 0.83878494 25.01791831 6 32 C6.87205078 33.19882813 6.87205078 33.19882813 7.76171875 34.421875 C14.57903493 42.88475025 23.6476349 47.09061351 34.33203125 48.25390625 C44.00031158 48.72590104 53.46447908 45.0028726 61 39 C67.32249 33.09209951 72.72948631 24.95925755 73.1328125 16.07421875 C73.12894531 14.39779297 73.12894531 14.39779297 73.125 12.6875 C73.12757812 11.57761719 73.13015625 10.46773437 73.1328125 9.32421875 C73.00527335 6.13198875 72.59757773 3.13491173 72 0 C74.0625 0.6875 74.0625 0.6875 77 2 C77.62390625 2.2371875 78.2478125 2.474375 78.890625 2.71875 C81.25807786 3.91210022 82.46120663 4.81825675 84 7 C86.63241613 20.59253865 81.11030355 32.59050593 73.76928711 43.78076172 C69.68302251 49.71652977 64.95799121 54.91917586 59.91064453 60.04541016 C57.64323945 62.36496614 55.41589682 64.72087409 53.18359375 67.07421875 C51.47812506 68.84265409 49.77109355 70.60958359 48.0625 72.375 C47.24539551 73.23891357 46.42829102 74.10282715 45.58642578 74.99291992 C44.41635986 76.18365112 44.41635986 76.18365112 43.22265625 77.3984375 C42.52922119 78.11692871 41.83578613 78.83541992 41.12133789 79.57568359 C39 81 39 81 36.45629883 80.90722656 C33.85776008 79.94746411 32.46124492 78.99607247 30.4765625 77.0859375 C29.8475 76.48910156 29.2184375 75.89226562 28.5703125 75.27734375 C27.92835937 74.64957031 27.28640625 74.02179688 26.625 73.375 C25.99078125 72.77042969 25.3565625 72.16585937 24.703125 71.54296875 C22.78762629 69.70956285 20.89110217 67.85853917 19 66 C18.3802832 65.39422119 17.76056641 64.78844238 17.12207031 64.16430664 C2.80054457 50.03324718 -10.13446346 33.78963833 -10.75195312 13.01953125 C-10.65787936 9.21477022 -10.26623485 7.31099588 -7.76953125 4.39453125 C-5.24258152 2.66594081 -2.79691427 1.23863346 0 0 Z " fill="#26B963" transform="translate(44,73)"/>
<path d="M0 0 C3.80119872 2.3301292 7.37924093 4.90074119 10.95703125 7.55859375 C12.57837344 8.74623142 14.20078908 9.93240488 15.82421875 11.1171875 C16.63600586 11.70999512 17.44779297 12.30280273 18.28417969 12.91357422 C21.68031592 15.37039847 25.12551514 17.75042182 28.58203125 20.12109375 C29.21407471 20.56557861 29.84611816 21.01006348 30.49731445 21.46801758 C34.19391058 24.04608306 37.94040765 26.38343047 41.8671875 28.59765625 C54.71382197 36.11272543 54.71382197 36.11272543 56.47412109 40.85693359 C57.26323693 45.91582284 56.66500641 50.63807177 55.64453125 55.62109375 C49.41321002 52.23862242 43.68771009 48.26255353 37.89453125 44.18359375 C35.84810135 42.75066621 33.80121904 41.31838457 31.75390625 39.88671875 C30.73232422 39.17193359 29.71074219 38.45714844 28.65820312 37.72070312 C23.41382465 34.06697217 18.13289665 30.46704231 12.84863281 26.87133789 C12.1315918 26.38270264 11.41455078 25.89406738 10.67578125 25.390625 C9.99515625 24.93252441 9.31453125 24.47442383 8.61328125 24.00244141 C7.28885728 23.07317667 5.9963259 22.09691745 4.73828125 21.07958984 C2.75395879 19.43465719 2.75395879 19.43465719 -0.35546875 17.62109375 C-2.92812737 17.80018916 -2.92812737 17.80018916 -5.35546875 19.62109375 C-6.2683667 20.20407227 -6.2683667 20.20407227 -7.19970703 20.79882812 C-9.47017249 22.28110639 -11.69436262 23.81944399 -13.91796875 25.37109375 C-14.74570801 25.94311523 -15.57344727 26.51513672 -16.42626953 27.10449219 C-19.07371515 28.93714772 -21.71540555 30.77782158 -24.35546875 32.62109375 C-25.22381348 33.22695313 -26.0921582 33.8328125 -26.98681641 34.45703125 C-32.02492071 37.97492839 -37.0568694 41.50156181 -42.08740234 45.03027344 C-45.40328357 47.35603039 -48.7200877 49.6803462 -52.04296875 51.99609375 C-53.56470703 53.05957031 -53.56470703 53.05957031 -55.1171875 54.14453125 C-57.35546875 55.62109375 -57.35546875 55.62109375 -58.35546875 55.62109375 C-59.51278656 49.96986352 -60.58725966 44.11660506 -58.35546875 38.62109375 C-55.54467234 35.89790272 -52.32032676 34.08656565 -48.91796875 32.18359375 C-42.53116481 28.86373293 -42.53116481 28.86373293 -38.35742188 23.31347656 C-37.33018055 18.0390668 -37.67144121 12.92082018 -38.35546875 7.62109375 C-36.54304823 7.59422096 -34.73051642 7.5747566 -32.91796875 7.55859375 C-31.90863281 7.54699219 -30.89929688 7.53539062 -29.859375 7.5234375 C-27.35546875 7.62109375 -27.35546875 7.62109375 -26.35546875 8.62109375 C-25.98786144 10.94927339 -25.65305294 13.28293225 -25.35546875 15.62109375 C-24.87190918 15.27852539 -24.38834961 14.93595703 -23.89013672 14.58300781 C-21.67084779 13.01151993 -19.45066553 11.44129871 -17.23046875 9.87109375 C-16.46992187 9.33226562 -15.709375 8.7934375 -14.92578125 8.23828125 C-13.42975276 7.18074387 -11.92948498 6.12917514 -10.42480469 5.08398438 C-9.14019775 4.1758479 -7.87338158 3.24123427 -6.63769531 2.26757812 C-4.27313437 0.46499804 -3.00837182 -0.48393377 0 0 Z " fill="#0653D2" transform="translate(82.35546875,22.37890625)"/>
<path d="M0 0 C3.3 0 6.6 0 10 0 C10 5.28 10 10.56 10 16 C15.61 16 21.22 16 27 16 C27 10.72 27 5.44 27 0 C30.3 0 33.6 0 37 0 C37 13.53 37 27.06 37 41 C33.7 41 30.4 41 27 41 C27 35.72 27 30.44 27 25 C21.72 25 16.44 25 11 25 C11 30.28 11 35.56 11 41 C7.37 41 3.74 41 0 41 C0 27.47 0 13.94 0 0 Z " fill="#F5F8FC" transform="translate(62,67)"/>
<path d="M0 0 C3.81908516 2.35268537 4.88256383 4.57964644 6.375 8.75 C10.24530368 18.4549911 15.61917445 23.38698677 25 28 C33.43191461 30.84491428 44.01007788 29.64548762 52 26 C57.08969779 22.99534836 60.99280047 19.20381603 64.67578125 14.61328125 C66.03916845 12.9522815 67.3917184 11.42718823 69 10 C69.66 10 70.32 10 71 10 C69.05190231 16.92656958 62.8878549 23.11936836 57 27 C45.97511873 32.5371601 37.53291829 34.77808747 25.375 31.375 C14.61714221 27.77219216 7.43169481 20.85224912 2.125 10.9375 C0.31366698 7.14701077 -0.56107602 4.26417778 0 0 Z " fill="#E8F3F5" transform="translate(44,89)"/>
<path d="M0 0 C2 2 2 2 2.1953125 3.9453125 C2.13020833 5.96354167 2.06510417 7.98177083 2 10 C1.34 10 0.68 10 0 10 C-0.66 9.34 -1.32 8.68 -2 8 C-3.0209375 7.7834375 -3.0209375 7.7834375 -4.0625 7.5625 C-4.701875 7.376875 -5.34125 7.19125 -6 7 C-6.33 6.01 -6.66 5.02 -7 4 C-4.69 2.68 -2.38 1.36 0 0 Z " fill="#044AC6" transform="translate(60,64)"/>
<path d="M0 0 C1.11375 0.309375 2.2275 0.61875 3.375 0.9375 C7.51180863 1.99935462 11.5425925 2.35136635 15.80078125 2.55859375 C18.41537701 3.08337052 19.3297241 3.97296614 21 6 C13.48193151 6.44032071 7.15775723 5.28612778 0 3 C0 2.01 0 1.02 0 0 Z " fill="#D3ECE9" transform="translate(65,116)"/>
<path d="M0 0 C0.66 0 1.32 0 2 0 C2.33 1.65 2.66 3.3 3 5 C2.01 5.66 1.02 6.32 0 7 C-0.66 6.67 -1.32 6.34 -2 6 C-1.34 4.02 -0.68 2.04 0 0 Z " fill="#0A58DC" transform="translate(100,106)"/>
<path d="M0 0 C2.64 0.66 5.28 1.32 8 2 C8 2.99 8 3.98 8 5 C5.36 4.34 2.72 3.68 0 3 C0 2.01 0 1.02 0 0 Z " fill="#DEF1EB" transform="translate(65,116)"/>
<path d="M0 0 C0.66 0.33 1.32 0.66 2 1 C2 3.31 2 5.62 2 8 C1.01 8.495 1.01 8.495 0 9 C-1.125 2.25 -1.125 2.25 0 0 Z " fill="#F3F8FA" transform="translate(45,83)"/>
<path d="M0 0 C-1.07401108 2.91517292 -1.77810176 4.77810176 -4 7 C-4.66 6.67 -5.32 6.34 -6 6 C-3.84615385 0 -3.84615385 0 0 0 Z " fill="#DFEEED" transform="translate(115,99)"/>
</svg>
